<svg width="257" height="111" viewBox="0 0 257 111" fill="none" xmlns="http://www.w3.org/2000/svg">
<rect y="3" width="250" height="100" fill="white"/>
<path fill-rule="evenodd" clip-rule="evenodd" d="M0 58.3307L13.8889 64.9533C27.7778 74.8871 55.5556 91.4435 83.3333 81.5097C111.111 71.5758 158.722 34.5564 186.5 18C214.278 1.44357 236.111 -1.66817 250 1.64311V108H236.111C222.222 108 194.444 108 166.667 108C138.889 108 111.111 108 83.3333 108C55.5556 108 27.7778 108 13.8889 108H0V58.3307Z" fill="url(#paint0_linear)"/>
<path d="M72.9766 66.3477C71.2966 66.3491 69.7844 66.0623 68.4399 65.4874C67.0955 64.8885 66.0388 64.0493 65.2699 62.97C64.501 61.8906 64.116 60.6309 64.1148 59.1909L68.5068 59.1873C68.6037 60.2673 69.0244 61.1549 69.769 61.8503C70.5376 62.5457 71.6058 62.8928 72.9738 62.8917C74.3898 62.8906 75.4936 62.5537 76.285 61.881C77.0765 61.1844 77.4717 60.2961 77.4709 59.2161C77.4702 58.3761 77.2176 57.6923 76.7132 57.1647C76.2328 56.6371 75.6204 56.2296 74.8762 55.9422C74.156 55.6548 73.1477 55.3436 71.8514 55.0086C70.2191 54.5779 68.8867 54.147 67.8544 53.7159C66.846 53.2607 65.9815 52.5654 65.2607 51.63C64.5399 50.6945 64.1789 49.4468 64.1777 47.8868C64.1765 46.4468 64.5355 45.1865 65.2546 44.106C65.9737 43.0254 66.9811 42.1966 68.2766 41.6195C69.5721 41.0425 71.0719 40.7532 72.7759 40.7519C75.1999 40.7499 77.1804 41.3603 78.7174 42.583C80.2783 43.7818 81.1437 45.4371 81.3134 47.5489L76.7774 47.5526C76.7047 46.6407 76.272 45.861 75.4795 45.2137C74.687 44.5663 73.6427 44.2432 72.3467 44.2442C71.1707 44.2452 70.211 44.5459 69.4674 45.1465C68.7239 45.7472 68.3526 46.6115 68.3535 47.7395C68.3542 48.5075 68.5827 49.1433 69.0391 49.6469C69.5195 50.1265 70.1198 50.51 70.84 50.7974C71.5603 51.0849 72.5445 51.3961 73.7928 51.731C75.4492 52.1857 76.7935 52.6406 77.8259 53.0958C78.8823 53.5509 79.7708 54.2582 80.4916 55.2176C81.2364 56.153 81.6094 57.4127 81.6107 58.9967C81.6117 60.2687 81.2647 61.469 80.5696 62.5976C79.8985 63.7261 78.9033 64.6389 77.5838 65.336C76.2884 66.009 74.7526 66.3463 72.9766 66.3477ZM90.5493 49.1615C91.2445 48.2489 92.1919 47.4801 93.3914 46.8551C94.5909 46.2302 95.9466 45.9171 97.4586 45.9159C99.1866 45.9145 100.759 46.3452 102.176 47.208C103.616 48.0469 104.745 49.2339 105.563 50.7693C106.38 52.3046 106.789 54.0683 106.791 56.0603C106.792 58.0523 106.386 59.8406 105.571 61.4253C104.756 62.9859 103.629 64.2109 102.19 65.1C100.775 65.9652 99.2032 66.3984 97.4752 66.3998C95.9632 66.4011 94.619 66.1022 93.4425 65.5031C92.266 64.8801 91.3054 64.1128 90.5607 63.2015L90.5706 75.5134L86.4666 75.5168L86.4429 46.2488L90.5469 46.2455L90.5493 49.1615ZM102.615 56.0637C102.614 54.6957 102.325 53.5199 101.748 52.5364C101.195 51.5288 100.451 50.7734 99.5142 50.2702C98.6017 49.7429 97.6175 49.4797 96.5615 49.4806C95.5295 49.4814 94.5457 49.7462 93.6102 50.275C92.6986 50.8037 91.9552 51.5723 91.38 52.5808C90.8289 53.5892 90.5538 54.7775 90.5549 56.1455C90.556 57.5135 90.833 58.7132 91.3858 59.7448C91.9627 60.7523 92.7073 61.5197 93.6197 62.047C94.5561 62.5742 95.5404 62.8374 96.5724 62.8366C97.6284 62.8357 98.6121 62.5709 99.5237 62.0422C100.459 61.4894 101.203 60.6968 101.754 59.6644C102.329 58.6319 102.616 57.4317 102.615 56.0637ZM143.002 49.0829C143.602 48.0744 144.393 47.2938 145.376 46.741C146.384 46.1642 147.572 45.8752 148.94 45.8741L148.943 50.1221L147.899 50.123C146.291 50.1243 145.068 50.5332 144.228 51.3499C143.413 52.1666 143.006 53.5829 143.008 55.5989L143.016 66.0389L138.912 66.0422L138.896 46.2063L143 46.2029L143.002 49.0829ZM160.568 56.1247L169.72 66.0173L164.176 66.0218L156.826 57.4957L156.832 66.0277L152.728 66.031L152.707 39.3911L156.811 39.3877L156.823 54.8677L164.016 46.1859L169.704 46.1813L160.568 56.1247ZM190.502 46.1644L178.358 75.3343L174.11 75.3377L178.134 65.6864L170.306 46.1808L174.878 46.1771L180.47 61.2925L186.254 46.1679L190.502 46.1644Z" fill="black"/>
<path d="M122.5 44C117.344 44 113.125 48.2188 113.125 53.375V56.5H111.562C111.148 56.5 110.751 56.6647 110.458 56.9577C110.165 57.2507 110 57.6481 110 58.0625V64.3125C110 64.7269 110.165 65.1244 110.458 65.4174C110.751 65.7104 111.148 65.875 111.562 65.875H114.688C115.102 65.875 115.499 65.7104 115.792 65.4174C116.085 65.1244 116.25 64.7269 116.25 64.3125V53.375C116.25 49.9063 119.031 47.125 122.5 47.125C125.969 47.125 128.75 49.9063 128.75 53.375V64.3125C128.75 64.7269 128.915 65.1244 129.208 65.4174C129.501 65.7104 129.898 65.875 130.312 65.875H133.438C133.852 65.875 134.249 65.7104 134.542 65.4174C134.835 65.1244 135 64.7269 135 64.3125V58.0625C135 57.6481 134.835 57.2507 134.542 56.9577C134.249 56.6647 133.852 56.5 133.438 56.5H131.875V53.375C131.875 48.2188 127.656 44 122.5 44Z" fill="black"/>
<defs>
<linearGradient id="paint0_linear" x1="125" y1="79.9057" x2="125" y2="108" gradientUnits="userSpaceOnUse">
<stop stop-color="#DDF1FF"/>
<stop offset="1" stop-color="#DDF1FF" stop-opacity="0"/>
</linearGradient>
</defs>
</svg>
